<svg xmlns="http://www.w3.org/2000/svg" viewBox="0 0 654.771 200"><path fill="#21262d" d="M0 0h654.77v200H0z"/><text transform="translate(176.716 129.99)" font-size="80.629" fill="#fff" font-family="LeagueGothic-Regular,League Gothic">RESILIENT CODERS</text><circle cx="99.682" cy="89.424" r="6.998" transform="rotate(-88.093 99.682 89.424)" fill="#fff"/><path d="M140.114 82.426a6.998 6.998 0 1 0 6.998 6.998 7.006 7.006 0 0 0-6.998-6.998z" fill="#fff"/><path d="M140.616 69.916l-40.894-.002a19.722 19.722 0 0 0 0 39.444h13.798l.003-2.006a.805.805 0 0 1 .816-.735l3.99-.005a.773.773 0 0 1 .793.74v2.005h1.295v-2.005c0-.45.37-.74.886-.74h3.91a.733.733 0 0 1 .823.74l-.003 2.005 14.583-.002a19.722 19.722 0 0 0 0-39.439zm-40.934 32.898a13.39 13.39 0 1 1 13.39-13.39 13.405 13.405 0 0 1-13.39 13.39zm40.432 0a13.39 13.39 0 1 1 13.39-13.39 13.405 13.405 0 0 1-13.39 13.39z" fill="#fff"/><rect x="113.517" y="110.729" width="5.608" height="5.608" rx=".953" fill="#fff"/><rect x="120.419" y="110.766" width="5.608" height="5.608" rx=".953" fill="#fff"/><rect x="127.313" y="110.766" width="5.608" height="5.608" rx=".953" fill="#fff"/><path d="M142.855 115.358a.904.904 0 0 1-.864.94h-6.91a.904.904 0 0 1-.864-.94v-3.652a.904.904 0 0 1 .863-.94h6.911a.904.904 0 0 1 .864.94z" fill="#fff"/><rect x="96.672" y="124.46" width="5.608" height="5.608" rx=".953" fill="#fff"/><rect x="137.247" y="124.479" width="5.608" height="5.608" rx=".953" fill="#fff"/><rect x="103.475" y="124.479" width="32.401" height="5.608" rx=".953" fill="#fff"/><rect x="106.615" y="110.785" width="5.608" height="5.608" rx=".953" fill="#fff"/><rect x="113.517" y="117.695" width="5.608" height="5.608" rx=".953" fill="#fff"/><rect x="120.419" y="117.733" width="5.608" height="5.608" rx=".953" fill="#fff"/><rect x="127.313" y="117.733" width="5.608" height="5.608" rx=".953" fill="#fff"/><path d="M142.866 122.336a.904.904 0 0 1-.864.94h-6.91a.904.904 0 0 1-.864-.94v-3.652a.904.904 0 0 1 .864-.94h6.91a.904.904 0 0 1 .864.94z" fill="#fff"/><rect x="106.658" y="117.695" width="5.608" height="5.608" rx=".953" fill="#fff"/><path d="M105.309 115.415a.904.904 0 0 1-.863.94h-6.911a.904.904 0 0 1-.863-.94v-3.652a.904.904 0 0 1 .863-.94h6.91a.904.904 0 0 1 .864.94zM105.309 122.325a.904.904 0 0 1-.863.94h-6.911a.904.904 0 0 1-.863-.94v-3.652a.904.904 0 0 1 .863-.94h6.91a.904.904 0 0 1 .864.94z" fill="#fff"/></svg>