<svg xmlns="http://www.w3.org/2000/svg" viewBox="0 0 654.77 200"><path fill="#21262d" d="M-71.401-23.101h797.573v246.203H-71.401z"/><g opacity=".1" fill="#fff"><circle cx="19.682" cy="89.424" r="6.998" transform="rotate(-88.093 19.682 89.424)"/><path d="M60.114 82.426a6.998 6.998 0 1 0 6.998 6.998 7.006 7.006 0 0 0-6.998-6.998z"/><path d="M60.616 69.916l-40.894-.002a19.722 19.722 0 0 0 0 39.444h13.799l.003-2.006a.805.805 0 0 1 .816-.735l3.99-.005a.773.773 0 0 1 .793.74v2.005h1.295v-2.005c0-.45.37-.74.885-.74h3.91a.733.733 0 0 1 .823.74l-.003 2.005 14.583-.002a19.722 19.722 0 0 0 0-39.439zm-40.934 32.898a13.39 13.39 0 1 1 13.39-13.39 13.405 13.405 0 0 1-13.39 13.39zm40.432 0a13.39 13.39 0 1 1 13.39-13.39 13.405 13.405 0 0 1-13.39 13.39z"/><rect x="33.517" y="110.729" width="5.608" height="5.608" rx=".953"/><rect x="40.419" y="110.766" width="5.608" height="5.608" rx=".953"/><rect x="47.313" y="110.766" width="5.608" height="5.608" rx=".953"/><path d="M62.855 115.358a.904.904 0 0 1-.864.94h-6.91a.904.904 0 0 1-.864-.94v-3.652a.904.904 0 0 1 .864-.94h6.91a.904.904 0 0 1 .864.94z"/><rect x="16.672" y="124.46" width="5.608" height="5.608" rx=".953"/><rect x="57.247" y="124.479" width="5.608" height="5.608" rx=".953"/><rect x="23.475" y="124.479" width="32.401" height="5.608" rx=".953"/><rect x="26.615" y="110.785" width="5.608" height="5.608" rx=".953"/><rect x="33.517" y="117.695" width="5.608" height="5.608" rx=".953"/><rect x="40.419" y="117.733" width="5.608" height="5.608" rx=".953"/><rect x="47.313" y="117.733" width="5.608" height="5.608" rx=".953"/><path d="M62.866 122.336a.904.904 0 0 1-.863.94h-6.911a.904.904 0 0 1-.864-.94v-3.652a.904.904 0 0 1 .864-.94h6.91a.904.904 0 0 1 .864.94z"/><rect x="26.658" y="117.695" width="5.608" height="5.608" rx=".953"/><path d="M25.31 115.415a.904.904 0 0 1-.864.94h-6.91a.904.904 0 0 1-.864-.94v-3.652a.904.904 0 0 1 .863-.94h6.91a.904.904 0 0 1 .864.94zM25.31 122.325a.904.904 0 0 1-.864.94h-6.91a.904.904 0 0 1-.864-.94v-3.652a.904.904 0 0 1 .863-.94h6.91a.904.904 0 0 1 .864.94z"/></g><g opacity=".1" fill="#fff"><circle cx="594.453" cy="89.424" r="6.998" transform="rotate(-88.093 594.452 89.423)"/><path d="M634.885 82.426a6.998 6.998 0 1 0 6.998 6.998 7.006 7.006 0 0 0-6.998-6.998z"/><path d="M635.387 69.916l-40.894-.002a19.722 19.722 0 0 0 0 39.444h13.799l.003-2.006a.805.805 0 0 1 .816-.735l3.99-.005a.773.773 0 0 1 .793.74v2.005h1.295v-2.005c0-.45.37-.74.885-.74h3.91a.733.733 0 0 1 .823.74l-.003 2.005 14.583-.002a19.722 19.722 0 0 0 0-39.439zm-40.934 32.898a13.39 13.39 0 1 1 13.39-13.39 13.405 13.405 0 0 1-13.39 13.39zm40.432 0a13.39 13.39 0 1 1 13.39-13.39 13.405 13.405 0 0 1-13.39 13.39z"/><rect x="608.288" y="110.729" width="5.608" height="5.608" rx=".953"/><rect x="615.19" y="110.766" width="5.608" height="5.608" rx=".953"/><rect x="622.084" y="110.766" width="5.608" height="5.608" rx=".953"/><path d="M637.626 115.358a.904.904 0 0 1-.864.94h-6.91a.904.904 0 0 1-.864-.94v-3.652a.904.904 0 0 1 .864-.94h6.91a.904.904 0 0 1 .864.94z"/><rect x="591.443" y="124.46" width="5.608" height="5.608" rx=".953"/><rect x="632.018" y="124.479" width="5.608" height="5.608" rx=".953"/><rect x="598.246" y="124.479" width="32.401" height="5.608" rx=".953"/><rect x="601.386" y="110.785" width="5.608" height="5.608" rx=".953"/><rect x="608.288" y="117.695" width="5.608" height="5.608" rx=".953"/><rect x="615.19" y="117.733" width="5.608" height="5.608" rx=".953"/><rect x="622.084" y="117.733" width="5.608" height="5.608" rx=".953"/><path d="M637.637 122.336a.904.904 0 0 1-.863.94h-6.911a.904.904 0 0 1-.863-.94v-3.652a.904.904 0 0 1 .863-.94h6.91a.904.904 0 0 1 .864.94z"/><rect x="601.429" y="117.695" width="5.608" height="5.608" rx=".953"/><path d="M600.08 115.415a.904.904 0 0 1-.863.94h-6.91a.904.904 0 0 1-.864-.94v-3.652a.904.904 0 0 1 .863-.94h6.91a.904.904 0 0 1 .864.94zM600.08 122.325a.904.904 0 0 1-.863.94h-6.91a.904.904 0 0 1-.864-.94v-3.652a.904.904 0 0 1 .863-.94h6.91a.904.904 0 0 1 .864.94z"/></g><g opacity=".1" fill="#fff"><circle cx="334.337" cy="19.511" r="6.998" transform="rotate(-88.093 334.336 19.51)"/><path d="M374.769 12.512a6.998 6.998 0 1 0 6.998 6.999 7.006 7.006 0 0 0-6.998-6.999z"/><path d="M375.27.003C375.159 0 334.49 0 334.378 0a19.722 19.722 0 0 0 0 39.444h13.798l.003-2.005a.805.805 0 0 1 .816-.736l3.99-.004a.773.773 0 0 1 .793.74v2.005h1.295v-2.005c0-.45.37-.74.885-.74h3.911a.733.733 0 0 1 .823.74l-.004 2.004s14.538 0 14.584-.002a19.722 19.722 0 0 0 0-39.438zM334.338 32.9a13.39 13.39 0 1 1 13.39-13.39 13.405 13.405 0 0 1-13.39 13.39zm40.432 0a13.39 13.39 0 1 1 13.389-13.39 13.405 13.405 0 0 1-13.39 13.39z"/><rect x="348.172" y="40.815" width="5.608" height="5.608" rx=".953"/><rect x="355.074" y="40.853" width="5.608" height="5.608" rx=".953"/><rect x="361.968" y="40.853" width="5.608" height="5.608" rx=".953"/><path d="M377.51 45.445a.904.904 0 0 1-.864.94h-6.91a.904.904 0 0 1-.864-.94v-3.652a.904.904 0 0 1 .863-.94h6.911a.904.904 0 0 1 .863.94z"/><rect x="331.326" y="54.546" width="5.608" height="5.608" rx=".953"/><rect x="371.902" y="54.565" width="5.608" height="5.608" rx=".953"/><rect x="338.13" y="54.565" width="32.401" height="5.608" rx=".953"/><rect x="341.269" y="40.872" width="5.608" height="5.608" rx=".953"/><rect x="348.172" y="47.781" width="5.608" height="5.608" rx=".953"/><rect x="355.074" y="47.819" width="5.608" height="5.608" rx=".953"/><rect x="361.968" y="47.819" width="5.608" height="5.608" rx=".953"/><path d="M377.52 52.422a.904.904 0 0 1-.863.94h-6.91a.904.904 0 0 1-.864-.94V48.77a.904.904 0 0 1 .863-.94h6.911a.904.904 0 0 1 .864.94z"/><rect x="341.312" y="47.781" width="5.608" height="5.608" rx=".953"/><path d="M339.964 45.502a.904.904 0 0 1-.864.94h-6.91a.904.904 0 0 1-.864-.94V41.85a.904.904 0 0 1 .864-.94h6.91a.904.904 0 0 1 .864.94zM339.964 52.411a.904.904 0 0 1-.864.94h-6.91a.904.904 0 0 1-.864-.94v-3.652a.904.904 0 0 1 .864-.94h6.91a.904.904 0 0 1 .864.94z"/></g><g opacity=".1" fill="#fff"><circle cx="334.337" cy="159.338" r="6.998" transform="rotate(-88.093 334.336 159.337)"/><path d="M374.769 152.34a6.998 6.998 0 1 0 6.998 6.998 7.006 7.006 0 0 0-6.998-6.999z"/><path d="M375.27 139.83c-.112-.002-40.78-.003-40.893-.003a19.722 19.722 0 0 0 0 39.444h13.798l.003-2.005a.805.805 0 0 1 .816-.736l3.99-.004a.773.773 0 0 1 .793.74v2.005h1.295v-2.005c0-.449.37-.74.885-.74h3.911a.733.733 0 0 1 .823.74l-.004 2.004 14.584-.001a19.722 19.722 0 0 0 0-39.439zm-40.933 32.897a13.39 13.39 0 1 1 13.39-13.39 13.405 13.405 0 0 1-13.39 13.39zm40.432 0a13.39 13.39 0 1 1 13.389-13.39 13.405 13.405 0 0 1-13.39 13.39z"/><rect x="348.172" y="180.642" width="5.608" height="5.608" rx=".953"/><rect x="355.074" y="180.68" width="5.608" height="5.608" rx=".953"/><rect x="361.968" y="180.68" width="5.608" height="5.608" rx=".953"/><path d="M377.51 185.272a.904.904 0 0 1-.864.94h-6.91a.904.904 0 0 1-.864-.94v-3.652a.904.904 0 0 1 .863-.94h6.911a.904.904 0 0 1 .863.94z"/><rect x="331.326" y="194.373" width="5.608" height="5.608" rx=".953"/><rect x="371.902" y="194.392" width="5.608" height="5.608" rx=".953"/><rect x="338.13" y="194.392" width="32.401" height="5.608" rx=".953"/><rect x="341.269" y="180.699" width="5.608" height="5.608" rx=".953"/><rect x="348.172" y="187.608" width="5.608" height="5.608" rx=".953"/><rect x="355.074" y="187.646" width="5.608" height="5.608" rx=".953"/><rect x="361.968" y="187.646" width="5.608" height="5.608" rx=".953"/><path d="M377.52 192.25a.904.904 0 0 1-.863.94h-6.91a.904.904 0 0 1-.864-.94v-3.653a.904.904 0 0 1 .863-.94h6.911a.904.904 0 0 1 .864.94z"/><rect x="341.312" y="187.608" width="5.608" height="5.608" rx=".953"/><path d="M339.964 185.329a.904.904 0 0 1-.864.94h-6.91a.904.904 0 0 1-.864-.94v-3.652a.904.904 0 0 1 .864-.94h6.91a.904.904 0 0 1 .864.94zM339.964 192.238a.904.904 0 0 1-.864.94h-6.91a.904.904 0 0 1-.864-.94v-3.652a.904.904 0 0 1 .864-.94h6.91a.904.904 0 0 1 .864.94z"/></g><text transform="translate(176.716 129.99)" font-size="80.629" fill="#fff" font-family="LeagueGothic-Regular,League Gothic">RESILIENT CODERS</text><circle cx="99.682" cy="89.424" r="6.998" transform="rotate(-88.093 99.682 89.424)" fill="#fff"/><path d="M140.114 82.426a6.998 6.998 0 1 0 6.998 6.998 7.006 7.006 0 0 0-6.998-6.998z" fill="#fff"/><path d="M140.616 69.916l-40.894-.002a19.722 19.722 0 0 0 0 39.444h13.798l.003-2.006a.805.805 0 0 1 .816-.735l3.99-.005a.773.773 0 0 1 .793.74v2.005h1.295v-2.005c0-.45.37-.74.886-.74h3.91a.733.733 0 0 1 .823.74l-.003 2.005 14.583-.002a19.722 19.722 0 0 0 0-39.439zm-40.934 32.898a13.39 13.39 0 1 1 13.39-13.39 13.405 13.405 0 0 1-13.39 13.39zm40.432 0a13.39 13.39 0 1 1 13.39-13.39 13.405 13.405 0 0 1-13.39 13.39z" fill="#fff"/><rect x="113.517" y="110.729" width="5.608" height="5.608" rx=".953" fill="#fff"/><rect x="120.419" y="110.766" width="5.608" height="5.608" rx=".953" fill="#fff"/><rect x="127.313" y="110.766" width="5.608" height="5.608" rx=".953" fill="#fff"/><path d="M142.855 115.358a.904.904 0 0 1-.864.94h-6.91a.904.904 0 0 1-.864-.94v-3.652a.904.904 0 0 1 .863-.94h6.911a.904.904 0 0 1 .864.94z" fill="#fff"/><rect x="96.672" y="124.46" width="5.608" height="5.608" rx=".953" fill="#fff"/><rect x="137.247" y="124.479" width="5.608" height="5.608" rx=".953" fill="#fff"/><rect x="103.475" y="124.479" width="32.401" height="5.608" rx=".953" fill="#fff"/><rect x="106.615" y="110.785" width="5.608" height="5.608" rx=".953" fill="#fff"/><rect x="113.517" y="117.695" width="5.608" height="5.608" rx=".953" fill="#fff"/><rect x="120.419" y="117.733" width="5.608" height="5.608" rx=".953" fill="#fff"/><rect x="127.313" y="117.733" width="5.608" height="5.608" rx=".953" fill="#fff"/><path d="M142.866 122.336a.904.904 0 0 1-.864.94h-6.91a.904.904 0 0 1-.864-.94v-3.652a.904.904 0 0 1 .864-.94h6.91a.904.904 0 0 1 .864.94z" fill="#fff"/><rect x="106.658" y="117.695" width="5.608" height="5.608" rx=".953" fill="#fff"/><path d="M105.309 115.415a.904.904 0 0 1-.863.94h-6.911a.904.904 0 0 1-.863-.94v-3.652a.904.904 0 0 1 .863-.94h6.91a.904.904 0 0 1 .864.94zM105.309 122.325a.904.904 0 0 1-.863.94h-6.911a.904.904 0 0 1-.863-.94v-3.652a.904.904 0 0 1 .863-.94h6.91a.904.904 0 0 1 .864.94z" fill="#fff"/></svg>