<svg xmlns="http://www.w3.org/2000/svg" viewBox="0 0 480 400"><title>resilient_coders_logo_</title><path d="M103.702,80.93307v24.47912c3.36249,0,8.97915-.45,8.97915-12.23747,0-11.79164-5.61666-12.24165-8.97915-12.24165m9.54165,70.50815L106.952,116.63716h-3.25v34.80406h-12.125V68.92477h12.125c14.3708,0,20.65411,8.3,20.65411,23.8,0,8.19164-2.13332,15.61246-6.73331,18.74994l7.74581,39.96656Z" style="fill:#ed2127"/><rect x="90" y="68.02187" width="299.99917" height="263.9576" style="fill:none"/><polygon points="132.109 68.925 132.109 151.442 159.838 151.442 159.838 138.983 144.234 138.983 144.234 116.304 155.454 116.304 155.454 103.063 144.234 103.063 144.234 81.383 159.838 81.383 159.838 68.925 132.109 68.925" style="fill:#ed2127"/><path d="M181.61767,68.02727c14.6-.34581,16.95411,12.68748,16.95411,21.89578l-11.90413,1.11667c0-5.49582-.78334-11.90414-4.82083-11.90414-3.14582.11666-4.15831,3.48333-4.15831,8.20415,0,5.61248,4.82915,11.8958,9.54163,18.74162,5.61249,8.425,11.34164,16.61661,11.34164,25.49159,0,10.99579-3.59582,20.7666-16.84162,20.7666-15.6,0-17.62911-11.77913-17.62911-24.0166l11.90413-1.12916c0,6.84582.67917,14.03329,5.725,14.03329,3.59583,0,4.93749-3.92915,4.93749-9.09163,0-5.49582-5.16249-12.1333-9.76247-19.09162-5.72915-8.41665-11.12081-16.83746-11.12081-25.70409,0-8.98748,4.37916-19.08329,15.8333-19.31246" style="fill:#ed2127"/><rect x="90" y="68.02187" width="299.99917" height="263.9576" style="fill:none"/><rect x="205.07885" y="68.92185" width="12.12913" height="82.51644" style="fill:#ed2127"/><polygon points="226.192 68.925 226.192 151.442 254.371 151.442 254.371 140.217 238.317 140.217 238.317 68.925 226.192 68.925" style="fill:#ed2127"/><rect x="259.31621" y="68.92185" width="12.1208" height="82.51644" style="fill:#ed2127"/><polygon points="280.424 68.925 280.424 151.442 308.154 151.442 308.154 138.983 292.549 138.983 292.549 116.304 303.774 116.304 303.774 103.063 292.549 103.063 292.549 81.383 308.154 81.383 308.154 68.925 280.424 68.925" style="fill:#ed2127"/><polygon points="339.134 68.925 339.134 111.921 339.134 115.742 338.463 115.742 337.459 111.921 325.672 68.925 314.884 68.925 314.884 151.442 326.005 151.442 326.005 108.442 326.005 104.629 326.672 104.629 327.689 108.442 339.476 151.442 350.255 151.442 350.255 68.925 339.134 68.925" style="fill:#ed2127"/><polygon points="354.967 68.925 354.967 81.383 366.421 81.383 366.421 151.442 378.546 151.442 378.546 81.383 390 81.383 390 68.925 354.967 68.925" style="fill:#ed2127"/><path d="M123.12074,212.979V224.3206s.1125,17.83745-16.16662,17.83745c-16.275,0-16.16246-17.83745-16.16246-17.83745V175.69991s-.11249-17.85412,16.16246-17.85412c16.27912,0,16.16662,17.85412,16.16662,17.85412v11.33747H111.77911V175.69991s.45-6.06249-4.59583-6.06249c-4.26665,0-4.26665,6.06249-4.26665,6.06249V224.3206s0,6.05832,4.26665,6.05832c5.04582,0,4.59583-6.05832,4.59583-6.05832V212.979Z" style="fill:#ed2127"/><path d="M145.80026,169.63492c-4.26249,0-4.04582,6.06247-4.04582,6.06247V224.3181s-.21667,6.06248,4.04582,6.06248,4.04583-6.06248,4.04583-6.06248V175.69739s.21666-6.06247-4.04583-6.06247m0,72.52479c-16.275,0-16.16662-17.84161-16.16662-17.84161V175.69739s-.10833-17.85,16.16662-17.85c16.28329,0,16.16663,17.85,16.16663,17.85V224.3181s.11666,17.84161-16.16663,17.84161" style="fill:#ed2127"/><path d="M182.28849,229.136c8.53748,0,9.1-2.12083,8.98748-29.17909.1125-26.95409-.45-29.08741-8.98748-29.08741Zm-2.58332,12.125h-9.54164V158.74453h9.54164c22.45827.11668,24.1416,8.99165,24.1416,41.32489,0,32.21242-1.68333,41.08739-24.1416,41.19155" style="fill:#ed2127"/><rect x="90" y="68.02187" width="299.99917" height="263.9576" style="fill:none"/><polygon points="209.69 158.746 237.419 158.746 237.419 171.213 221.815 171.213 221.815 192.879 233.04 192.879 233.04 206.125 221.815 206.125 221.815 228.813 237.419 228.813 237.419 241.263 209.69 241.263 209.69 158.746" style="fill:#ed2127"/><path d="M256.28371,170.757v24.47493c3.36248,0,8.97913-.45,8.97913-12.23746,0-11.77915-5.61665-12.23747-8.97913-12.23747m9.54164,70.504-6.29166-34.80406h-3.25V241.261h-12.125V158.74453h12.125c14.37078,0,20.65411,8.30832,20.65411,23.80827,0,8.18748-2.13333,15.60414-6.73332,18.74162l7.74582,39.96655Z" style="fill:#ed2127"/><path d="M299.72984,157.847c14.59162-.34582,16.94994,12.68747,16.94994,21.89578l-11.9,1.12916c0-5.50831-.7875-11.91246-4.82916-11.91246-3.13748.11249-4.15,3.47916-4.15,8.2,0,5.61249,4.82916,11.8958,9.54163,18.74162,5.61248,8.4333,11.33747,16.61661,11.33747,25.49159,0,11.00413-3.59165,20.76661-16.83745,20.76661-15.61245,0-17.62912-11.77913-17.62912-24.0166l11.90415-1.12916c0,6.84581.67082,14.03745,5.725,14.03745,3.58749,0,4.93749-3.93332,4.93749-9.09581,0-5.49581-5.16666-12.13329-9.76247-19.08328-5.72915-8.425-11.12081-16.83744-11.12081-25.71242,0-8.98748,4.37916-19.08328,15.8333-19.31245" style="fill:#ed2127"/><rect x="90" y="68.02187" width="299.99917" height="263.9576" style="fill:none"/><rect x="90" y="318.63367" width="11.79163" height="12.4583" style="fill:#ed2127"/><path d="M124.58324,259.45467c-4.26249,0-4.04582,6.075-4.04582,6.075v48.6082s-.21667,6.06248,4.04582,6.06248c4.26665,0,4.04582-6.06248,4.04582-6.06248v-48.6082s.22083-6.075-4.04582-6.075m0,72.5248c-16.28329,0-16.16662-17.84162-16.16662-17.84162v-48.6082S108.3,247.6672,124.58324,247.6672,140.754,265.52965,140.754,265.52965v48.6082s.1125,17.84162-16.17079,17.84162" style="fill:#ed2127"/><path d="M161.07063,260.57425v24.4791c3.36666,0,8.98748-.44167,8.98748-12.23747,0-11.77913-5.62082-12.24163-8.98748-12.24163m9.54165,70.51647-6.28332-34.8124h-3.25833v34.8124h-12.125V248.566h12.125c14.3708,0,20.66245,8.30831,20.66245,23.80827,0,8.19581-2.13333,15.60412-6.74165,18.74161l7.74581,39.97489Z" style="fill:#ed2127"/><path d="M206.65884,278.2067V265.52757s.22083-6.07082-4.04582-6.07082c-4.26249,0-4.04165,6.07082-4.04165,6.07082v49.62486s-.22084,6.06248,4.04165,6.06248c4.26665,0,4.04582-6.06248,4.04582-6.06248V300.215h-4.82915v-10.2208h16.95412v41.09572h-7.19165l-1.45416-3.92916a12.21453,12.21453,0,0,1-9.43748,4.81665c-15.375,0-14.25412-17.83745-14.25412-17.83745V265.52757s-.1125-17.86245,16.16662-17.86245c16.27495,0,16.17079,17.86245,16.17079,17.86245V278.2067Z" style="fill:#ed2127"/><rect x="90" y="68.02187" width="299.99917" height="263.9576" style="fill:none"/></svg>