<svg xmlns="http://www.w3.org/2000/svg" viewBox="0 0 480 400"><title>resilient_coders_logo</title><circle cx="177.18281" cy="173.49297" r="21.63702" transform="translate(-2.1103 344.80421) rotate(-88.09298)" style="fill:#fff"/><path d="M302.18691,151.85583a21.63708,21.63708,0,1,0,21.63736,21.6372A21.66161,21.66161,0,0,0,302.18691,151.85583Z" style="fill:#fff"/><path d="M303.73887,113.18c-.34778-.00586-126.08319-.00877-126.43237-.00877a60.97526,60.97526,0,0,0,0,121.95051l42.66078-.00139s.00946-4.97333.00946-6.19882A2.4895,2.4895,0,0,1,222.5,226.647c1.30432,0,11.23331-.013,12.33661-.013a2.38951,2.38951,0,0,1,2.45078,2.28758c0,1.47059.0002,6.19814.0002,6.19814l4.00326-.00016s.00136-4.80909.00136-6.198,1.14208-2.28758,2.73557-2.28758h12.0915a2.26676,2.26676,0,0,1,2.54322,2.28758c0,1.47059-.01054,6.19714-.01054,6.19714s44.94482-.00335,45.08771-.00574A60.97544,60.97544,0,0,0,303.73887,113.18ZM177.1828,214.88911A41.3962,41.3962,0,1,1,218.57907,173.493,41.44312,41.44312,0,0,1,177.1828,214.88911Zm125.00411,0A41.3962,41.3962,0,1,1,343.58338,173.493,41.44295,41.44295,0,0,1,302.18691,214.88911Z" style="fill:#fff"/><rect x="219.95668" y="239.35957" width="17.33777" height="17.33777" rx="2.94603" style="fill:#fff"/><rect x="241.29651" y="239.47678" width="17.33777" height="17.33777" rx="2.94603" style="fill:#fff"/><rect x="262.61122" y="239.47678" width="17.33777" height="17.33777" rx="2.94603" style="fill:#fff"/><path d="M310.66067,253.67393a2.79528,2.79528,0,0,1-2.66921,2.9062H286.62528a2.79528,2.79528,0,0,1-2.66921-2.9062V242.383a2.79528,2.79528,0,0,1,2.66921-2.9062h21.36618a2.79528,2.79528,0,0,1,2.66921,2.9062Z" style="fill:#fff"/><rect x="167.87579" y="281.81233" width="17.33777" height="17.33777" rx="2.94603" style="fill:#fff"/><rect x="293.32289" y="281.87094" width="17.33777" height="17.33777" rx="2.94603" style="fill:#fff"/><rect x="188.9103" y="281.87094" width="100.17444" height="17.33777" rx="2.94603" style="fill:#fff"/><rect x="198.61685" y="239.53539" width="17.33777" height="17.33777" rx="2.94603" style="fill:#fff"/><rect x="219.95668" y="260.89699" width="17.33777" height="17.33777" rx="2.94603" style="fill:#fff"/><rect x="241.29651" y="261.0142" width="17.33777" height="17.33777" rx="2.94603" style="fill:#fff"/><rect x="262.61122" y="261.0142" width="17.33777" height="17.33777" rx="2.94603" style="fill:#fff"/><path d="M310.69508,275.24576a2.79528,2.79528,0,0,1-2.66921,2.9062H286.65969a2.79528,2.79528,0,0,1-2.66921-2.9062V263.95482a2.79528,2.79528,0,0,1,2.66921-2.9062h21.36618a2.79528,2.79528,0,0,1,2.66921,2.9062Z" style="fill:#fff"/><rect x="198.75005" y="260.89699" width="17.33777" height="17.33777" rx="2.94603" style="fill:#fff"/><path d="M194.58038,253.84975a2.79527,2.79527,0,0,1-2.6692,2.9062H170.545a2.79527,2.79527,0,0,1-2.6692-2.9062V242.55881a2.79527,2.79527,0,0,1,2.6692-2.9062h21.36619a2.79527,2.79527,0,0,1,2.6692,2.9062Z" style="fill:#fff"/><path d="M194.58038,275.21135a2.79527,2.79527,0,0,1-2.6692,2.9062H170.545a2.79527,2.79527,0,0,1-2.6692-2.9062v-11.291a2.79527,2.79527,0,0,1,2.6692-2.9062h21.36619a2.79527,2.79527,0,0,1,2.6692,2.9062Z" style="fill:#fff"/></svg>