<svg xmlns="http://www.w3.org/2000/svg" viewBox="0 0 654.771 200"><title>resilient_coders_logo</title><rect width="654.77" height="200" style="fill:#ed1c24"/><text transform="translate(176.71642 129.99049)" style="font-size:80.62903594970703px;fill:#fff;font-family:LeagueGothic-Regular, League Gothic">RESILIENT CODERS</text><circle cx="99.6819" cy="89.42432" r="6.99838" transform="translate(6.98993 186.07518) rotate(-88.09298)" style="fill:#fff"/><path d="M140.11381,82.4259a6.9984,6.9984,0,1,0,6.99849,6.99844A7.00634,7.00634,0,0,0,140.11381,82.4259Z" style="fill:#fff"/><path d="M140.61579,69.91642c-.11249-.00189-40.78094-.00284-40.89388-.00284a19.72213,19.72213,0,0,0,0,39.44426l13.7984-.00046s.00306-1.60859.00306-2.005a.80522.80522,0,0,1,.81612-.73569c.42188,0,3.63336-.00422,3.99021-.00422a.77287.77287,0,0,1,.79269.73991c0,.47565.00007,2.00475.00007,2.00475l1.29483,0s.00044-1.55547.00044-2.0047.3694-.73991.88481-.73991h3.91093a.73317.73317,0,0,1,.82259.73991c0,.47565-.00341,2.00443-.00341,2.00443s14.53717-.00108,14.58339-.00186a19.72218,19.72218,0,0,0-.00025-39.43856Zm-40.9339,32.89726A13.38938,13.38938,0,1,1,113.0713,89.42434,13.40455,13.40455,0,0,1,99.68189,102.81368Zm40.43192,0a13.38938,13.38938,0,1,1,13.38948-13.38934A13.4045,13.4045,0,0,1,140.11381,102.81368Z" style="fill:#fff"/><rect x="113.51688" y="110.72852" width="5.60781" height="5.60781" rx="0.95288" style="fill:#fff"/><rect x="120.41914" y="110.76644" width="5.60781" height="5.60781" rx="0.95288" style="fill:#fff"/><rect x="127.31327" y="110.76644" width="5.60781" height="5.60781" rx="0.95288" style="fill:#fff"/><path d="M142.85461,115.35843a.90412.90412,0,0,1-.86334.94h-6.91078a.90412.90412,0,0,1-.86334-.94v-3.652a.90412.90412,0,0,1,.86334-.94h6.91078a.90412.90412,0,0,1,.86334.94Z" style="fill:#fff"/><rect x="96.67159" y="124.45965" width="5.60781" height="5.60781" rx="0.95288" style="fill:#fff"/><rect x="137.2468" y="124.4786" width="5.60781" height="5.60781" rx="0.95288" style="fill:#fff"/><rect x="103.47509" y="124.4786" width="32.40089" height="5.60781" rx="0.95288" style="fill:#fff"/><rect x="106.61463" y="110.78539" width="5.60781" height="5.60781" rx="0.95288" style="fill:#fff"/><rect x="113.51688" y="117.69469" width="5.60781" height="5.60781" rx="0.95288" style="fill:#fff"/><rect x="120.41914" y="117.7326" width="5.60781" height="5.60781" rx="0.95288" style="fill:#fff"/><rect x="127.31327" y="117.7326" width="5.60781" height="5.60781" rx="0.95288" style="fill:#fff"/><path d="M142.86574,122.33572a.90412.90412,0,0,1-.86334.94h-6.91078a.90412.90412,0,0,1-.86334-.94v-3.652a.90412.90412,0,0,1,.86334-.94h6.91078a.90412.90412,0,0,1,.86334.94Z" style="fill:#fff"/><rect x="106.65771" y="117.69469" width="5.60781" height="5.60781" rx="0.95288" style="fill:#fff"/><path d="M105.30905,115.4153a.90412.90412,0,0,1-.86334.94H97.53493a.90412.90412,0,0,1-.86334-.94v-3.652a.90412.90412,0,0,1,.86334-.94h6.91078a.90412.90412,0,0,1,.86334.94Z" style="fill:#fff"/><path d="M105.30905,122.32459a.90412.90412,0,0,1-.86334.94H97.53493a.90412.90412,0,0,1-.86334-.94v-3.652a.90412.90412,0,0,1,.86334-.94h6.91078a.90412.90412,0,0,1,.86334.94Z" style="fill:#fff"/></svg>