<svg xmlns="http://www.w3.org/2000/svg" viewBox="0 0 480 400"><circle cx="177.183" cy="173.493" r="21.637" transform="rotate(-88.093 177.183 173.493)" fill="#fff"/><path d="M302.187 151.856a21.637 21.637 0 1 0 21.637 21.637 21.662 21.662 0 0 0-21.637-21.637z" fill="#fff"/><path d="M303.739 113.18c-.348-.006-126.083-.009-126.432-.009a60.975 60.975 0 0 0 0 121.95h42.66s.01-4.974.01-6.2a2.49 2.49 0 0 1 2.523-2.274c1.304 0 11.233-.013 12.337-.013a2.39 2.39 0 0 1 2.45 2.288v6.198h4.004l.001-6.198c0-1.388 1.142-2.288 2.736-2.288h12.091a2.267 2.267 0 0 1 2.544 2.288c0 1.47-.011 6.197-.011 6.197s44.945-.004 45.088-.006a60.975 60.975 0 0 0-.001-121.933zM177.183 214.89a41.396 41.396 0 1 1 41.396-41.397 41.443 41.443 0 0 1-41.396 41.396zm125.004 0a41.396 41.396 0 1 1 41.396-41.397 41.443 41.443 0 0 1-41.396 41.396z" fill="#fff"/><rect x="219.957" y="239.36" width="17.338" height="17.338" rx="2.946" fill="#fff"/><rect x="241.297" y="239.477" width="17.338" height="17.338" rx="2.946" fill="#fff"/><rect x="262.611" y="239.477" width="17.338" height="17.338" rx="2.946" fill="#fff"/><path d="M310.66 253.674a2.795 2.795 0 0 1-2.669 2.906h-21.366a2.795 2.795 0 0 1-2.669-2.906v-11.291a2.795 2.795 0 0 1 2.67-2.906h21.365a2.795 2.795 0 0 1 2.67 2.906z" fill="#fff"/><rect x="167.876" y="281.812" width="17.338" height="17.338" rx="2.946" fill="#fff"/><rect x="293.323" y="281.871" width="17.338" height="17.338" rx="2.946" fill="#fff"/><rect x="188.91" y="281.871" width="100.174" height="17.338" rx="2.946" fill="#fff"/><rect x="198.617" y="239.535" width="17.338" height="17.338" rx="2.946" fill="#fff"/><rect x="219.957" y="260.897" width="17.338" height="17.338" rx="2.946" fill="#fff"/><rect x="241.297" y="261.014" width="17.338" height="17.338" rx="2.946" fill="#fff"/><rect x="262.611" y="261.014" width="17.338" height="17.338" rx="2.946" fill="#fff"/><path d="M310.695 275.246a2.795 2.795 0 0 1-2.67 2.906H286.66a2.795 2.795 0 0 1-2.67-2.906v-11.291a2.795 2.795 0 0 1 2.67-2.906h21.366a2.795 2.795 0 0 1 2.67 2.906z" fill="#fff"/><rect x="198.75" y="260.897" width="17.338" height="17.338" rx="2.946" fill="#fff"/><path d="M194.58 253.85a2.795 2.795 0 0 1-2.669 2.906h-21.366a2.795 2.795 0 0 1-2.67-2.906v-11.291a2.795 2.795 0 0 1 2.67-2.906h21.366a2.795 2.795 0 0 1 2.67 2.906zM194.58 275.211a2.795 2.795 0 0 1-2.669 2.907h-21.366a2.795 2.795 0 0 1-2.67-2.907v-11.29a2.795 2.795 0 0 1 2.67-2.907h21.366a2.795 2.795 0 0 1 2.67 2.906z" fill="#fff"/></svg>