<svg xmlns="http://www.w3.org/2000/svg" viewBox="0 0 654.77 199.99969"><title>resilient_coders_logo</title><rect x="-71.40081" y="-23.10135" width="797.57261" height="246.2027" style="fill:#21262d"/><g style="opacity:0.1"><circle cx="19.68211" cy="89.42432" r="6.99838" transform="translate(-70.34766 106.1197) rotate(-88.09298)" style="fill:#fff"/><path d="M60.114,82.4259a6.9984,6.9984,0,1,0,6.99849,6.99844A7.00634,7.00634,0,0,0,60.114,82.4259Z" style="fill:#fff"/><path d="M60.616,69.91642c-.11249-.00189-40.78094-.00284-40.89388-.00284a19.72213,19.72213,0,0,0,0,39.44426l13.7984-.00046s.00306-1.60859.00306-2.005a.80522.80522,0,0,1,.81613-.73569c.42187,0,3.63335-.00422,3.9902-.00422a.77288.77288,0,0,1,.7927.73991c0,.47565.00006,2.00475.00006,2.00475l1.29484,0s.00044-1.55547.00044-2.0047.36939-.73991.8848-.73991h3.91093a.73317.73317,0,0,1,.82259.73991c0,.47565-.00341,2.00443-.00341,2.00443s14.53717-.00108,14.58339-.00186A19.72218,19.72218,0,0,0,60.616,69.91642ZM19.68211,102.81368a13.38938,13.38938,0,1,1,13.3894-13.38934A13.40455,13.40455,0,0,1,19.68211,102.81368Zm40.43192,0A13.38938,13.38938,0,1,1,73.5035,89.42434,13.4045,13.4045,0,0,1,60.114,102.81368Z" style="fill:#fff"/><rect x="33.51709" y="110.72852" width="5.60781" height="5.60781" rx="0.95288" style="fill:#fff"/><rect x="40.41935" y="110.76644" width="5.60781" height="5.60781" rx="0.95288" style="fill:#fff"/><rect x="47.31348" y="110.76644" width="5.60781" height="5.60781" rx="0.95288" style="fill:#fff"/><path d="M62.85482,115.35843a.90412.90412,0,0,1-.86334.94H55.0807a.90412.90412,0,0,1-.86334-.94v-3.652a.90412.90412,0,0,1,.86334-.94h6.91078a.90412.90412,0,0,1,.86334.94Z" style="fill:#fff"/><rect x="16.6718" y="124.45965" width="5.60781" height="5.60781" rx="0.95288" style="fill:#fff"/><rect x="57.24701" y="124.4786" width="5.60781" height="5.60781" rx="0.95288" style="fill:#fff"/><rect x="23.4753" y="124.4786" width="32.40089" height="5.60781" rx="0.95288" style="fill:#fff"/><rect x="26.61484" y="110.78539" width="5.60781" height="5.60781" rx="0.95288" style="fill:#fff"/><rect x="33.51709" y="117.69469" width="5.60781" height="5.60781" rx="0.95288" style="fill:#fff"/><rect x="40.41935" y="117.7326" width="5.60781" height="5.60781" rx="0.95288" style="fill:#fff"/><rect x="47.31348" y="117.7326" width="5.60781" height="5.60781" rx="0.95288" style="fill:#fff"/><path d="M62.866,122.33572a.90412.90412,0,0,1-.86334.94H55.09183a.90412.90412,0,0,1-.86334-.94v-3.652a.90412.90412,0,0,1,.86334-.94h6.91078a.90412.90412,0,0,1,.86334.94Z" style="fill:#fff"/><rect x="26.65792" y="117.69469" width="5.60781" height="5.60781" rx="0.95288" style="fill:#fff"/><path d="M25.30926,115.4153a.90412.90412,0,0,1-.86334.94H17.53514a.90412.90412,0,0,1-.86334-.94v-3.652a.90412.90412,0,0,1,.86334-.94h6.91078a.90412.90412,0,0,1,.86334.94Z" style="fill:#fff"/><path d="M25.30926,122.32459a.90412.90412,0,0,1-.86334.94H17.53514a.90412.90412,0,0,1-.86334-.94v-3.652a.90412.90412,0,0,1,.86334-.94h6.91078a.90412.90412,0,0,1,.86334.94Z" style="fill:#fff"/></g><g style="opacity:0.1"><circle cx="594.45311" cy="89.42432" r="6.99838" transform="matrix(0.03328, -0.99945, 0.99945, 0.03328, 485.29634, 680.57236)" style="fill:#fff"/><path d="M634.885,82.4259a6.9984,6.9984,0,1,0,6.99849,6.99844A7.00634,7.00634,0,0,0,634.885,82.4259Z" style="fill:#fff"/><path d="M635.387,69.91642c-.11249-.00189-40.78094-.00284-40.89388-.00284a19.72213,19.72213,0,0,0,0,39.44426l13.7984-.00046s.00306-1.60859.00306-2.005a.80522.80522,0,0,1,.81613-.73569c.42187,0,3.63335-.00422,3.9902-.00422a.77288.77288,0,0,1,.7927.73991c0,.47565.00006,2.00475.00006,2.00475l1.29484,0s.00044-1.55547.00044-2.0047.36939-.73991.8848-.73991h3.91093a.73317.73317,0,0,1,.82259.73991c0,.47565-.00341,2.00443-.00341,2.00443s14.53717-.00108,14.58339-.00186a19.72218,19.72218,0,0,0-.00025-39.43856Zm-40.93389,32.89726a13.38938,13.38938,0,1,1,13.3894-13.38934A13.40455,13.40455,0,0,1,594.45311,102.81368Zm40.43192,0A13.38938,13.38938,0,1,1,648.2745,89.42434,13.4045,13.4045,0,0,1,634.885,102.81368Z" style="fill:#fff"/><rect x="608.28809" y="110.72852" width="5.60781" height="5.60781" rx="0.95288" style="fill:#fff"/><rect x="615.19035" y="110.76644" width="5.60781" height="5.60781" rx="0.95288" style="fill:#fff"/><rect x="622.08448" y="110.76644" width="5.60781" height="5.60781" rx="0.95288" style="fill:#fff"/><path d="M637.62582,115.35843a.90412.90412,0,0,1-.86334.94H629.8517a.90412.90412,0,0,1-.86334-.94v-3.652a.90412.90412,0,0,1,.86334-.94h6.91078a.90412.90412,0,0,1,.86334.94Z" style="fill:#fff"/><rect x="591.4428" y="124.45965" width="5.60781" height="5.60781" rx="0.95288" style="fill:#fff"/><rect x="632.01801" y="124.4786" width="5.60781" height="5.60781" rx="0.95288" style="fill:#fff"/><rect x="598.2463" y="124.4786" width="32.40089" height="5.60781" rx="0.95288" style="fill:#fff"/><rect x="601.38584" y="110.78539" width="5.60781" height="5.60781" rx="0.95288" style="fill:#fff"/><rect x="608.28809" y="117.69469" width="5.60781" height="5.60781" rx="0.95288" style="fill:#fff"/><rect x="615.19035" y="117.7326" width="5.60781" height="5.60781" rx="0.95288" style="fill:#fff"/><rect x="622.08448" y="117.7326" width="5.60781" height="5.60781" rx="0.95288" style="fill:#fff"/><path d="M637.637,122.33572a.90412.90412,0,0,1-.86334.94h-6.91078a.90412.90412,0,0,1-.86334-.94v-3.652a.90412.90412,0,0,1,.86334-.94h6.91078a.90412.90412,0,0,1,.86334.94Z" style="fill:#fff"/><rect x="601.42892" y="117.69469" width="5.60781" height="5.60781" rx="0.95288" style="fill:#fff"/><path d="M600.08026,115.4153a.90412.90412,0,0,1-.86334.94h-6.91078a.90412.90412,0,0,1-.86334-.94v-3.652a.90412.90412,0,0,1,.86334-.94h6.91078a.90412.90412,0,0,1,.86334.94Z" style="fill:#fff"/><path d="M600.08026,122.32459a.90412.90412,0,0,1-.86334.94h-6.91078a.90412.90412,0,0,1-.86334-.94v-3.652a.90412.90412,0,0,1,.86334-.94h6.91078a.90412.90412,0,0,1,.86334.94Z" style="fill:#fff"/></g><g style="opacity:0.1"><circle cx="334.33666" cy="19.51074" r="6.99838" transform="matrix(0.03328, -0.99945, 0.99945, 0.03328, 303.71081, 353.01296)" style="fill:#fff"/><path d="M374.76858,12.51232a6.9984,6.9984,0,1,0,6.99849,6.99844A7.00633,7.00633,0,0,0,374.76858,12.51232Z" style="fill:#fff"/><path d="M375.27056.00284C375.15807.00094,334.48961,0,334.37667,0a19.72212,19.72212,0,0,0,0,39.44425l13.79841-.00045s.00306-1.6086.00306-2.005a.80521.80521,0,0,1,.81612-.73568c.42187,0,3.63335-.00422,3.99021-.00422a.77287.77287,0,0,1,.79269.7399c0,.47566.00006,2.00476.00006,2.00476l1.29484,0s.00044-1.55548.00044-2.00471.3694-.7399.8848-.7399h3.91094a.73317.73317,0,0,1,.82259.7399c0,.47566-.00341,2.00444-.00341,2.00444s14.53716-.00109,14.58338-.00186A19.72218,19.72218,0,0,0,375.27056.00284ZM334.33666,32.9001a13.38938,13.38938,0,1,1,13.38941-13.38934A13.40455,13.40455,0,0,1,334.33666,32.9001Zm40.43192,0a13.38938,13.38938,0,1,1,13.38947-13.38934A13.4045,13.4045,0,0,1,374.76858,32.9001Z" style="fill:#fff"/><rect x="348.17165" y="40.81494" width="5.60781" height="5.60781" rx="0.95288" style="fill:#fff"/><rect x="355.0739" y="40.85285" width="5.60781" height="5.60781" rx="0.95288" style="fill:#fff"/><rect x="361.96803" y="40.85285" width="5.60781" height="5.60781" rx="0.95288" style="fill:#fff"/><path d="M377.50937,45.44484a.90412.90412,0,0,1-.86334.94h-6.91078a.90412.90412,0,0,1-.86334-.94v-3.652a.90412.90412,0,0,1,.86334-.94H376.646a.90412.90412,0,0,1,.86334.94Z" style="fill:#fff"/><rect x="331.32636" y="54.54606" width="5.60781" height="5.60781" rx="0.95288" style="fill:#fff"/><rect x="371.90156" y="54.56502" width="5.60781" height="5.60781" rx="0.95288" style="fill:#fff"/><rect x="338.12986" y="54.56502" width="32.40089" height="5.60781" rx="0.95288" style="fill:#fff"/><rect x="341.26939" y="40.87181" width="5.60781" height="5.60781" rx="0.95288" style="fill:#fff"/><rect x="348.17165" y="47.78111" width="5.60781" height="5.60781" rx="0.95288" style="fill:#fff"/><rect x="355.0739" y="47.81902" width="5.60781" height="5.60781" rx="0.95288" style="fill:#fff"/><rect x="361.96803" y="47.81902" width="5.60781" height="5.60781" rx="0.95288" style="fill:#fff"/><path d="M377.5205,52.42214a.90412.90412,0,0,1-.86334.94h-6.91078a.90412.90412,0,0,1-.86334-.94v-3.652a.90412.90412,0,0,1,.86334-.94h6.91078a.90412.90412,0,0,1,.86334.94Z" style="fill:#fff"/><rect x="341.31248" y="47.78111" width="5.60781" height="5.60781" rx="0.95288" style="fill:#fff"/><path d="M339.96382,45.50171a.90412.90412,0,0,1-.86334.94H332.1897a.90412.90412,0,0,1-.86334-.94v-3.652a.90412.90412,0,0,1,.86334-.94h6.91078a.90412.90412,0,0,1,.86334.94Z" style="fill:#fff"/><path d="M339.96382,52.411a.90412.90412,0,0,1-.86334.94H332.1897a.90412.90412,0,0,1-.86334-.94V48.759a.90412.90412,0,0,1,.86334-.94h6.91078a.90412.90412,0,0,1,.86334.94Z" style="fill:#fff"/></g><g style="opacity:0.1"><circle cx="334.33666" cy="159.33791" r="6.99838" transform="matrix(0.03328, -0.99945, 0.99945, 0.03328, 163.96108, 488.18701)" style="fill:#fff"/><path d="M374.76858,152.33949a6.9984,6.9984,0,1,0,6.99849,6.99843A7.00633,7.00633,0,0,0,374.76858,152.33949Z" style="fill:#fff"/><path d="M375.27056,139.83c-.11249-.0019-40.78095-.00284-40.89389-.00284a19.72212,19.72212,0,0,0,0,39.44425l13.79841-.00045s.00306-1.6086.00306-2.005a.8052.8052,0,0,1,.81612-.73568c.42187,0,3.63335-.00422,3.99021-.00422a.77287.77287,0,0,1,.79269.7399c0,.47566.00006,2.00476.00006,2.00476l1.29484,0s.00044-1.55548.00044-2.00471.3694-.7399.8848-.7399h3.91094a.73317.73317,0,0,1,.82259.7399c0,.47566-.00341,2.00444-.00341,2.00444s14.53716-.00109,14.58338-.00186a19.72218,19.72218,0,0,0-.00024-39.43856Zm-40.9339,32.89726a13.38939,13.38939,0,1,1,13.38941-13.38935A13.40456,13.40456,0,0,1,334.33666,172.72727Zm40.43192,0a13.38939,13.38939,0,1,1,13.38947-13.38935A13.40451,13.40451,0,0,1,374.76858,172.72727Z" style="fill:#fff"/><rect x="348.17165" y="180.64211" width="5.60781" height="5.60781" rx="0.95288" style="fill:#fff"/><rect x="355.0739" y="180.68002" width="5.60781" height="5.60781" rx="0.95288" style="fill:#fff"/><rect x="361.96803" y="180.68002" width="5.60781" height="5.60781" rx="0.95288" style="fill:#fff"/><path d="M377.50937,185.272a.90412.90412,0,0,1-.86334.94h-6.91078a.90412.90412,0,0,1-.86334-.94V181.62a.90412.90412,0,0,1,.86334-.94H376.646a.90412.90412,0,0,1,.86334.94Z" style="fill:#fff"/><rect x="331.32636" y="194.37323" width="5.60781" height="5.60781" rx="0.95288" style="fill:#fff"/><rect x="371.90156" y="194.39219" width="5.60781" height="5.60781" rx="0.95288" style="fill:#fff"/><rect x="338.12986" y="194.39219" width="32.40089" height="5.60781" rx="0.95288" style="fill:#fff"/><rect x="341.26939" y="180.69898" width="5.60781" height="5.60781" rx="0.95288" style="fill:#fff"/><rect x="348.17165" y="187.60827" width="5.60781" height="5.60781" rx="0.95288" style="fill:#fff"/><rect x="355.0739" y="187.64619" width="5.60781" height="5.60781" rx="0.95288" style="fill:#fff"/><rect x="361.96803" y="187.64619" width="5.60781" height="5.60781" rx="0.95288" style="fill:#fff"/><path d="M377.5205,192.24931a.90412.90412,0,0,1-.86334.94h-6.91078a.90412.90412,0,0,1-.86334-.94v-3.652a.90412.90412,0,0,1,.86334-.94h6.91078a.90412.90412,0,0,1,.86334.94Z" style="fill:#fff"/><rect x="341.31248" y="187.60827" width="5.60781" height="5.60781" rx="0.95288" style="fill:#fff"/><path d="M339.96382,185.32888a.90412.90412,0,0,1-.86334.94H332.1897a.90412.90412,0,0,1-.86334-.94v-3.652a.90412.90412,0,0,1,.86334-.94h6.91078a.90412.90412,0,0,1,.86334.94Z" style="fill:#fff"/><path d="M339.96382,192.23818a.90412.90412,0,0,1-.86334.94H332.1897a.90412.90412,0,0,1-.86334-.94v-3.652a.90412.90412,0,0,1,.86334-.94h6.91078a.90412.90412,0,0,1,.86334.94Z" style="fill:#fff"/></g><text transform="translate(176.71648 129.99048)" style="font-size:80.62903594970703px;fill:#fff;font-family:LeagueGothic-Regular, League Gothic">RESILIENT CODERS</text><circle cx="99.6819" cy="89.42432" r="6.99838" transform="translate(6.98993 186.07518) rotate(-88.09298)" style="fill:#fff"/><path d="M140.11381,82.4259a6.9984,6.9984,0,1,0,6.99849,6.99844A7.00634,7.00634,0,0,0,140.11381,82.4259Z" style="fill:#fff"/><path d="M140.61579,69.91642c-.11249-.00189-40.78094-.00284-40.89388-.00284a19.72213,19.72213,0,0,0,0,39.44426l13.7984-.00046s.00306-1.60859.00306-2.005a.80522.80522,0,0,1,.81612-.73569c.42188,0,3.63336-.00422,3.99021-.00422a.77287.77287,0,0,1,.79269.73991c0,.47565.00007,2.00475.00007,2.00475l1.29483,0s.00044-1.55547.00044-2.0047.3694-.73991.88481-.73991h3.91093a.73317.73317,0,0,1,.82259.73991c0,.47565-.00341,2.00443-.00341,2.00443s14.53717-.00108,14.58339-.00186a19.72218,19.72218,0,0,0-.00025-39.43856Zm-40.9339,32.89726A13.38938,13.38938,0,1,1,113.0713,89.42434,13.40455,13.40455,0,0,1,99.68189,102.81368Zm40.43192,0a13.38938,13.38938,0,1,1,13.38948-13.38934A13.4045,13.4045,0,0,1,140.11381,102.81368Z" style="fill:#fff"/><rect x="113.51688" y="110.72852" width="5.60781" height="5.60781" rx="0.95288" style="fill:#fff"/><rect x="120.41914" y="110.76644" width="5.60781" height="5.60781" rx="0.95288" style="fill:#fff"/><rect x="127.31327" y="110.76644" width="5.60781" height="5.60781" rx="0.95288" style="fill:#fff"/><path d="M142.85461,115.35843a.90412.90412,0,0,1-.86334.94h-6.91078a.90412.90412,0,0,1-.86334-.94v-3.652a.90412.90412,0,0,1,.86334-.94h6.91078a.90412.90412,0,0,1,.86334.94Z" style="fill:#fff"/><rect x="96.67159" y="124.45965" width="5.60781" height="5.60781" rx="0.95288" style="fill:#fff"/><rect x="137.2468" y="124.4786" width="5.60781" height="5.60781" rx="0.95288" style="fill:#fff"/><rect x="103.47509" y="124.4786" width="32.40089" height="5.60781" rx="0.95288" style="fill:#fff"/><rect x="106.61463" y="110.78539" width="5.60781" height="5.60781" rx="0.95288" style="fill:#fff"/><rect x="113.51688" y="117.69469" width="5.60781" height="5.60781" rx="0.95288" style="fill:#fff"/><rect x="120.41914" y="117.7326" width="5.60781" height="5.60781" rx="0.95288" style="fill:#fff"/><rect x="127.31327" y="117.7326" width="5.60781" height="5.60781" rx="0.95288" style="fill:#fff"/><path d="M142.86574,122.33572a.90412.90412,0,0,1-.86334.94h-6.91078a.90412.90412,0,0,1-.86334-.94v-3.652a.90412.90412,0,0,1,.86334-.94h6.91078a.90412.90412,0,0,1,.86334.94Z" style="fill:#fff"/><rect x="106.65771" y="117.69469" width="5.60781" height="5.60781" rx="0.95288" style="fill:#fff"/><path d="M105.30905,115.4153a.90412.90412,0,0,1-.86334.94H97.53493a.90412.90412,0,0,1-.86334-.94v-3.652a.90412.90412,0,0,1,.86334-.94h6.91078a.90412.90412,0,0,1,.86334.94Z" style="fill:#fff"/><path d="M105.30905,122.32459a.90412.90412,0,0,1-.86334.94H97.53493a.90412.90412,0,0,1-.86334-.94v-3.652a.90412.90412,0,0,1,.86334-.94h6.91078a.90412.90412,0,0,1,.86334.94Z" style="fill:#fff"/></svg>