<?xml version="1.0" encoding="utf-8"?>
<!-- Generator: Adobe Illustrator 18.1.1, SVG Export Plug-In . SVG Version: 6.00 Build 0)  -->
<svg version="1.1" xmlns="http://www.w3.org/2000/svg" xmlns:xlink="http://www.w3.org/1999/xlink" x="0px" y="0px"
	 viewBox="0 0 1200 500" enable-background="new 0 0 1200 500" xml:space="preserve">
<g id="Background_1">
	<g>
		<rect x="770.7" y="170.5" fill="#F2F2F2" width="144.7" height="315.5"/>
		<rect x="905.4" y="307.2" fill="#F2F2F2" width="80.7" height="178.8"/>
		<rect x="986.1" y="249.7" fill="#F2F2F2" width="93.9" height="236.3"/>
		<rect x="656.6" y="249.7" fill="#F2F2F2" width="114.2" height="236.3"/>
		<polygon fill="#F2F2F2" points="552.4,66.6 429.6,89.6 429.6,486 552.4,486 		"/>
		<rect x="552.4" y="290.6" fill="#F2F2F2" width="104.2" height="195.4"/>
		<rect x="320.2" y="352.8" fill="#F2F2F2" width="109.4" height="133.2"/>
		<rect x="210.8" y="236" fill="#F2F2F2" width="109.4" height="250"/>
		<rect x="1080" y="367.9" fill="#F2F2F2" width="90.8" height="118.1"/>
		<rect x="120" y="297.9" fill="#F2F2F2" width="90.8" height="188.1"/>
		<rect x="29.2" y="367.9" fill="#F2F2F2" width="90.8" height="118.1"/>
		<rect x="220.3" y="217.8" fill="#F2F2F2" width="90.3" height="18.2"/>
		<polygon fill="#F2F2F2" points="228.2,218 265.3,182.6 302.9,218 		"/>
		<rect x="779.5" y="152.3" fill="#F2F2F2" width="127.1" height="18.2"/>
		<path fill="#F2F2F2" d="M885.9,134h-85.5c0-24,19.1-42.8,42.8-42.8C866.7,91.2,885.9,110,885.9,134z"/>
		<rect x="790.2" y="134.1" fill="#F2F2F2" width="105.7" height="18.2"/>
	</g>
</g>
<g id="Background_2_copy">
	<g>
		<rect x="638.1" y="188.2" fill="#D3D3D3" width="113.2" height="297.8"/>
		<rect x="652.3" y="181.2" fill="#D3D3D3" width="84.7" height="7"/>
		<rect x="641" y="177.9" fill="#D3D3D3" width="107.3" height="3.3"/>
		<rect x="645.8" y="161.3" fill="#D3D3D3" width="97.7" height="16.6"/>
		<rect x="641" y="158" fill="#D3D3D3" width="107.3" height="3.3"/>
		<rect x="656.9" y="154.7" fill="#D3D3D3" width="75.5" height="3.3"/>
		<rect x="692.8" y="118.7" fill="#D3D3D3" width="3.6" height="36"/>
	</g>
	<path fill="#D3D3D3" d="M946,414v72h26.3c0-1.1,0-0.8,0-0.9c0-24.9,20.2-45.4,45.1-45.4c24.9,0,45.1,20.6,45.1,45.5
		c0,0.1,0-0.3,0,0.8h23.4c0-1.1,0-0.8,0-0.9c0-24.9,20.2-45.4,45.1-45.4c24.9,0,45.1,20.6,45.1,45.5c0,0.1,0-0.3,0,0.8h23.8v-72H946
		z"/>
	<g>
		<rect x="283.4" y="313.7" fill="#D3D3D3" width="125.3" height="172.3"/>
		<rect x="291.9" y="291.6" fill="#D3D3D3" width="108.3" height="22.1"/>
		<polygon fill="#D3D3D3" points="374.5,262.8 317.6,262.8 291.9,291.6 400.2,291.6 		"/>
		<rect x="337.7" y="257.4" fill="#D3D3D3" width="16.8" height="5.4"/>
		<rect x="342.3" y="225.7" fill="#D3D3D3" width="7.6" height="31.7"/>
		<rect x="344.9" y="182.3" fill="#D3D3D3" width="2.4" height="43.4"/>
	</g>
	<g>
		<rect x="778" y="374.6" fill="#D3D3D3" width="142.1" height="111.4"/>
		<rect x="772.6" y="367.7" fill="#D3D3D3" width="152.9" height="7"/>
		<path fill="#D3D3D3" d="M885.2,353.3h-72.3c-8.3,0-15-6.7-15-15V266c0-8.3,6.7-15,15-15h72.3c8.3,0,15,6.7,15,15v72.3
			C900.2,346.6,893.5,353.3,885.2,353.3z"/>
		<g>
			<rect x="814.9" y="344.5" fill="#D3D3D3" width="3.4" height="25"/>
			<rect x="847.3" y="344.5" fill="#D3D3D3" width="3.4" height="25"/>
			<rect x="879.7" y="344.5" fill="#D3D3D3" width="3.4" height="25"/>
		</g>
		<polygon fill="#F2F2F2" points="820.8,323 849.1,274.1 877.3,323 		"/>
	</g>
	<g>
		<rect x="433.6" y="398.2" fill="#D3D3D3" width="62.2" height="87.8"/>
		<rect x="495.7" y="398.2" fill="#D3D3D3" width="55.7" height="87.8"/>
		<path fill="#D3D3D3" d="M551.4,398c0-16-12.5-27.9-27.9-27.9c-15.4,0-27.9,11.9-27.9,27.9H551.4z"/>
		<rect x="551.4" y="398.2" fill="#D3D3D3" width="62.2" height="87.8"/>
	</g>
	<rect y="485.7" fill="#D3D3D3" width="1200" height="14.3"/>
	<g>
		<line fill="none" stroke="#D3D3D3" stroke-width="4" stroke-miterlimit="10" x1="17" y1="438" x2="329" y2="438"/>
		<rect x="168.6" y="244.7" fill="#D3D3D3" width="13.6" height="241.3"/>
		<line fill="none" stroke="#D3D3D3" stroke-width="3" stroke-miterlimit="10" x1="180.9" y1="257.4" x2="309.4" y2="436.5"/>
		<line fill="none" stroke="#D3D3D3" stroke-width="3" stroke-miterlimit="10" x1="180.9" y1="267.2" x2="269.5" y2="436.5"/>
		<line fill="none" stroke="#D3D3D3" stroke-width="3" stroke-miterlimit="10" x1="180.9" y1="279.6" x2="236.7" y2="436.5"/>
		<line fill="none" stroke="#D3D3D3" stroke-width="3" stroke-miterlimit="10" x1="180.9" y1="293.6" x2="209.9" y2="436.5"/>
		<polygon fill="#D3D3D3" points="175.4,236 168.6,244.7 182.2,244.7 		"/>
		<line fill="none" stroke="#D3D3D3" stroke-width="3" stroke-miterlimit="10" x1="170.4" y1="257.4" x2="41.9" y2="436.5"/>
		<line fill="none" stroke="#D3D3D3" stroke-width="3" stroke-miterlimit="10" x1="170.4" y1="267.2" x2="81.9" y2="436.5"/>
		<line fill="none" stroke="#D3D3D3" stroke-width="3" stroke-miterlimit="10" x1="170.4" y1="279.6" x2="114.7" y2="436.5"/>
		<line fill="none" stroke="#D3D3D3" stroke-width="3" stroke-miterlimit="10" x1="170.4" y1="293.6" x2="141.4" y2="436.5"/>
	</g>
</g>
<g id="Icon_1">
</g>
</svg>
