<?xml version="1.0" encoding="utf-8"?>
<!-- Generator: Adobe Illustrator 18.1.1, SVG Export Plug-In . SVG Version: 6.00 Build 0)  -->
<svg version="1.1" xmlns="http://www.w3.org/2000/svg" xmlns:xlink="http://www.w3.org/1999/xlink" x="0px" y="0px"
	 viewBox="0 0 1184 419.4" enable-background="new 0 0 1184 419.4" xml:space="preserve">
<g id="Background_1">
	<g>
		<rect x="754.7" y="103.9" fill="#FFFFFF" width="144.7" height="315.5"/>
		<rect x="889.4" y="240.6" fill="#FFFFFF" width="80.7" height="178.8"/>
		<rect x="970.1" y="183.1" fill="#FFFFFF" width="93.9" height="236.3"/>
		<rect x="640.6" y="183.1" fill="#FFFFFF" width="114.2" height="236.3"/>
		<polygon fill="#FFFFFF" points="536.4,0 413.6,23 413.6,419.4 536.4,419.4 		"/>
		<rect x="536.4" y="224" fill="#FFFFFF" width="104.2" height="195.4"/>
		<rect x="304.2" y="286.2" fill="#FFFFFF" width="109.4" height="133.2"/>
		<rect x="194.8" y="169.4" fill="#FFFFFF" width="109.4" height="250"/>
		<rect x="1064" y="301.3" fill="#FFFFFF" width="90.8" height="118.1"/>
		<rect x="104" y="231.3" fill="#FFFFFF" width="90.8" height="188.1"/>
		<rect x="13.2" y="301.3" fill="#FFFFFF" width="90.8" height="118.1"/>
		<rect x="204.3" y="151.2" fill="#FFFFFF" width="90.3" height="18.2"/>
		<polygon fill="#FFFFFF" points="212.2,151.4 249.3,116 286.9,151.4 		"/>
		<rect x="763.5" y="85.7" fill="#FFFFFF" width="127.1" height="18.2"/>
		<path fill="#FFFFFF" d="M869.9,67.4h-85.5c0-24,19.1-42.8,42.8-42.8C850.7,24.6,869.9,43.4,869.9,67.4z"/>
		<rect x="774.2" y="67.5" fill="#FFFFFF" width="105.7" height="18.2"/>
	</g>
</g>
<g id="Background_2_copy">
	<polygon fill="#D6D6D6" points="721,121.4 721,114.4 732,114.4 732,111.4 727,111.4 727,94.4 732,94.4 732,91.4 716,91.4 716,88.4 
		680,88.4 680,52.4 677,52.4 677,88.4 641,88.4 641,91.4 625,91.4 625,94.4 630,94.4 630,111.4 625,111.4 625,114.4 636,114.4 
		636,121.4 622,121.4 622,419.4 735,419.4 735,121.4 	"/>
	<g>
		<path fill="#D6D6D6" d="M930,347.4v72h26.3c0-1.1,0-0.8,0-0.9c0-24.9,20.2-45.4,45.1-45.4c24.9,0,45.1,20.6,45.1,45.5
			c0,0.1,0-0.3,0,0.8h23.4c0-1.1,0-0.8,0-0.9c0-24.9,20.2-45.4,45.1-45.4c24.9,0,45.1,20.6,45.1,45.5c0,0.1,0-0.3,0,0.8h23.8v-72
			H930z"/>
	</g>
	<polygon fill="#D6D6D6" points="384,247.4 384,225 358.5,196.4 338,196.4 338,190.4 334,190.4 334,159.4 331,159.4 331,115.4 
		329,115.4 329,159.4 326,159.4 326,190.4 322,190.4 322,196.4 301.6,196.4 276,225 276,247.4 267,247.4 267,419.4 393,419.4 
		393,247.4 	"/>
	<path fill="#D6D6D6" d="M868,301.4v-15h1c8.3,0,15-6.7,15-15v-72c0-8.3-6.7-15-15-15h-72c-8.3,0-15,6.7-15,15v72
		c0,8.3,6.7,15,15,15h1v15h-41v7h5v111h142v-111h5v-7H868z M862,301.4h-27v-15h27V301.4z M833.1,207.5l28.2,48.9h-56.4L833.1,207.5z
		 M804,286.4h26v15h-26V286.4z"/>
	<g>
		<path fill="#D6D6D6" d="M507.6,303.5c-15.4,0-27.9,11.9-27.9,27.9h55.7C535.4,315.4,523,303.5,507.6,303.5z"/>
		<polygon fill="#D6D6D6" points="535.4,331.4 479.7,331.4 418,331.4 418,419.4 479.7,419.4 535.4,419.4 598,419.4 598,331.4 		"/>
	</g>
	<g>
		<g>
			<rect y="366.4" fill="#D6D6D6" width="312" height="4"/>
		</g>
		<g>
			<rect x="151.6" y="175.1" fill="#D6D6D6" width="13.6" height="244.3"/>
		</g>
		<g>
			
				<rect x="117.9" y="275.8" transform="matrix(0.5829 0.8125 -0.8125 0.5829 320.4883 -69.7462)" fill="#D6D6D6" width="220.5" height="3"/>
		</g>
		<g>
			
				<rect x="112.7" y="280.8" transform="matrix(0.4636 0.8861 -0.8861 0.4636 361.7855 -33.0608)" fill="#D6D6D6" width="191" height="3"/>
		</g>
		<g>
			
				<rect x="108.5" y="286.9" transform="matrix(0.3348 0.9423 -0.9423 0.3348 399.3733 11.1404)" fill="#D6D6D6" width="166.5" height="3"/>
		</g>
		<g>
			
				<rect x="105.5" y="294" transform="matrix(0.1989 0.98 -0.98 0.1989 432.476 61.8223)" fill="#D6D6D6" width="145.8" height="3"/>
		</g>
		<g>
			<polygon fill="#D6D6D6" points="158.4,166.4 151.6,175.1 165.2,175.1 			"/>
		</g>
		<g>
			
				<rect x="87.7" y="167.1" transform="matrix(0.8126 0.5828 -0.5828 0.8126 178.3254 -1.422268e-02)" fill="#D6D6D6" width="3" height="220.5"/>
		</g>
		<g>
			
				<rect x="107.7" y="186.7" transform="matrix(0.8861 0.4635 -0.4635 0.8861 143.277 -18.4498)" fill="#D6D6D6" width="3" height="191"/>
		</g>
		<g>
			
				<rect x="124.1" y="205.2" transform="matrix(0.9424 0.3346 -0.3346 0.9424 103.7548 -25.3924)" fill="#D6D6D6" width="3" height="166.5"/>
		</g>
		<g>
			
				<rect x="137.4" y="222.6" transform="matrix(0.98 0.1992 -0.1992 0.98 61.6326 -21.7558)" fill="#D6D6D6" width="3" height="145.8"/>
		</g>
	</g>
	<g>
		<g>
			<rect x="2017.7" y="61.3" fill="#D6D6D6" width="144.7" height="315.5"/>
			<rect x="2152.4" y="198" fill="#D6D6D6" width="80.7" height="178.8"/>
			<rect x="2233.1" y="140.5" fill="#D6D6D6" width="93.9" height="236.3"/>
			<rect x="1903.6" y="140.5" fill="#D6D6D6" width="114.2" height="236.3"/>
			<polygon fill="#D6D6D6" points="1799.4,-42.6 1676.6,-19.6 1676.6,376.8 1799.4,376.8 			"/>
			<rect x="1799.4" y="181.4" fill="#D6D6D6" width="104.2" height="195.4"/>
			<rect x="1567.2" y="243.6" fill="#D6D6D6" width="109.4" height="133.2"/>
			<rect x="1457.8" y="126.8" fill="#D6D6D6" width="109.4" height="250"/>
			<rect x="2327" y="258.6" fill="#D6D6D6" width="90.8" height="118.1"/>
			<rect x="1367" y="188.7" fill="#D6D6D6" width="90.8" height="188.1"/>
			<rect x="1276.2" y="258.6" fill="#D6D6D6" width="90.8" height="118.1"/>
			<rect x="1467.3" y="108.6" fill="#D6D6D6" width="90.3" height="18.2"/>
			<polygon fill="#D6D6D6" points="1475.2,108.4 1512.3,73 1549.9,108.4 			"/>
			<rect x="2026.5" y="43.1" fill="#D6D6D6" width="127.1" height="18.2"/>
			<path fill="#D6D6D6" d="M2132.9,24.4h-85.5c0-24,19.1-42.8,42.8-42.8S2132.9,0.4,2132.9,24.4z"/>
			<rect x="2037.2" y="24.9" fill="#D6D6D6" width="105.7" height="18.2"/>
		</g>
		<g>
			<rect x="1885.1" y="79" fill="#D6D6D6" width="113.2" height="297.8"/>
			<rect x="1899.3" y="72" fill="#D6D6D6" width="84.7" height="7"/>
			<rect x="1888" y="68.7" fill="#D6D6D6" width="107.3" height="3.3"/>
			<rect x="1892.8" y="52.1" fill="#D6D6D6" width="97.7" height="16.6"/>
			<rect x="1888" y="48.8" fill="#D6D6D6" width="107.3" height="3.3"/>
			<rect x="1903.9" y="45.5" fill="#D6D6D6" width="75.5" height="3.3"/>
			<rect x="1939.8" y="9.4" fill="#D6D6D6" width="3.6" height="36"/>
		</g>
		<path fill="#D6D6D6" d="M2193,304.4v72h26.3c0-1,0-0.6,0-0.7c0-24.9,20.2-45.3,45.1-45.3c24.9,0,45.1,20.5,45.1,45.4
			c0,0.1,0-0.4,0,0.6h23.4c0-1,0-0.6,0-0.7c0-24.9,20.2-45.3,45.1-45.3s45.1,20.5,45.1,45.4c0,0.1,0-0.4,0,0.6h23.8v-72H2193z"/>
		<g>
			<rect x="1530.4" y="204.5" fill="#D6D6D6" width="125.3" height="172.3"/>
			<rect x="1538.9" y="182.4" fill="#D6D6D6" width="108.3" height="22.1"/>
			<polygon fill="#D6D6D6" points="1621.5,153.6 1564.6,153.6 1538.9,182.4 1647.2,182.4 			"/>
			<rect x="1584.7" y="148.1" fill="#D6D6D6" width="16.8" height="5.4"/>
			<rect x="1589.3" y="116.5" fill="#D6D6D6" width="7.6" height="31.7"/>
			<rect x="1591.9" y="73.1" fill="#D6D6D6" width="2.4" height="43.4"/>
		</g>
		<g>
			<rect x="2025" y="265.4" fill="#D6D6D6" width="142.1" height="111.4"/>
			<rect x="2019.6" y="258.4" fill="#D6D6D6" width="152.9" height="7"/>
			<path fill="#D6D6D6" d="M2132.2,244.1h-72.3c-8.3,0-15-6.7-15-15v-72.3c0-8.3,6.7-15,15-15h72.3c8.3,0,15,6.7,15,15v72.3
				C2147.2,237.4,2140.5,244.1,2132.2,244.1z"/>
			<g>
				<rect x="2061.9" y="235.3" fill="#D6D6D6" width="3.4" height="25"/>
				<rect x="2094.3" y="235.3" fill="#D6D6D6" width="3.4" height="25"/>
				<rect x="2126.7" y="235.3" fill="#D6D6D6" width="3.4" height="25"/>
			</g>
			<polygon fill="#D6D6D6" points="2067.8,213.4 2096.1,164.5 2124.3,213.4 			"/>
		</g>
		<g>
			<rect x="1680.6" y="289" fill="#D6D6D6" width="62.2" height="87.8"/>
			<rect x="1742.7" y="289" fill="#D6D6D6" width="55.7" height="87.8"/>
			<path fill="#D6D6D6" d="M1798.4,288.4c0-16-12.5-27.9-27.9-27.9c-15.4,0-27.9,11.9-27.9,27.9H1798.4z"/>
			<rect x="1798.4" y="289" fill="#D6D6D6" width="62.2" height="87.8"/>
		</g>
		<rect x="1247" y="376.4" fill="#D6D6D6" width="1200" height="14.3"/>
		<g>
			<line fill="#D6D6D6" stroke="#D3D3D3" stroke-width="4" stroke-miterlimit="10" x1="1263" y1="325.4" x2="1575" y2="325.4"/>
			<rect x="1414.6" y="132.5" fill="#D6D6D6" width="13.6" height="241.3"/>
			<line fill="#D6D6D6" stroke="#D3D3D3" stroke-width="3" stroke-miterlimit="10" x1="1426.9" y1="145.1" x2="1555.4" y2="324.3"/>
			<line fill="#D6D6D6" stroke="#D3D3D3" stroke-width="3" stroke-miterlimit="10" x1="1426.9" y1="155" x2="1515.5" y2="324.3"/>
			<line fill="#D6D6D6" stroke="#D3D3D3" stroke-width="3" stroke-miterlimit="10" x1="1426.9" y1="167.4" x2="1482.7" y2="324.3"/>
			<line fill="#D6D6D6" stroke="#D3D3D3" stroke-width="3" stroke-miterlimit="10" x1="1426.9" y1="181.4" x2="1455.9" y2="324.3"/>
			<polygon fill="#D6D6D6" points="1421.4,123.8 1414.6,132.5 1428.2,132.5 			"/>
			<line fill="#D6D6D6" stroke="#D3D3D3" stroke-width="3" stroke-miterlimit="10" x1="1416.4" y1="145.1" x2="1287.9" y2="324.3"/>
			<line fill="#D6D6D6" stroke="#D3D3D3" stroke-width="3" stroke-miterlimit="10" x1="1416.4" y1="155" x2="1327.9" y2="324.3"/>
			<line fill="#D6D6D6" stroke="#D3D3D3" stroke-width="3" stroke-miterlimit="10" x1="1416.4" y1="167.4" x2="1360.7" y2="324.3"/>
			<line fill="#D6D6D6" stroke="#D3D3D3" stroke-width="3" stroke-miterlimit="10" x1="1416.4" y1="181.4" x2="1387.4" y2="324.3"/>
		</g>
	</g>
</g>
<g id="Icon_1">
	<path fill="#333333" d="M158.5,672.6c-48.2,0-87.5,39.1-87.5,87.3v75.4h175v-75.4C246,711.8,206.7,672.6,158.5,672.6z"/>
	<circle fill="#333333" cx="158.6" cy="603.3" r="57.2"/>
	<g>
		<path fill="#333333" d="M1843.5,420.6c-48.2,0-87.5,39.1-87.5,87.3v75.4h175v-75.4C1931,459.8,1891.7,420.6,1843.5,420.6z"/>
		<circle fill="#333333" cx="1844.5" cy="355.3" r="57.2"/>
	</g>
	<g>
		<g>
			<circle fill="#EA1B23" stroke="#C11A26" stroke-width="5" stroke-miterlimit="10" cx="1754" cy="554.1" r="52.5"/>
			<text transform="matrix(1 0 0 1 1728.3066 564.5379)" fill="#FFFFFF" font-family="'RobotoSlab-Bold'" font-size="37.5236">&lt;/&gt;</text>
		</g>
		<g>
			<circle fill="#EA1B23" stroke="#C11A26" stroke-width="5" stroke-miterlimit="10" cx="1934" cy="554.1" r="52.5"/>
			<text transform="matrix(1 0 0 1 1923.8593 564.5382)" fill="#FFFFFF" font-family="'RobotoSlab-Bold'" font-size="37.5236">$</text>
		</g>
	</g>
</g>
</svg>
