<?xml version="1.0" encoding="utf-8"?>
<!-- Generator: Adobe Illustrator 21.0.2, SVG Export Plug-In . SVG Version: 6.00 Build 0)  -->
<svg version="1.1" id="Layer_1" xmlns="http://www.w3.org/2000/svg" xmlns:xlink="http://www.w3.org/1999/xlink" x="0px" y="0px"
	 viewBox="0 0 26.1 26.1" style="enable-background:new 0 0 26.1 26.1;" xml:space="preserve">
<style type="text/css">
	.st0{fill:#FFFFFF;}
</style>
<path class="st0" d="M16.6,13l8.8-8.8c1-1,1-2.6,0-3.5s-2.6-1-3.5,0L13,9.5L4.3,0.7c-1-1-2.6-1-3.5,0s-1,2.6,0,3.5L9.5,13l-8.8,8.8
	c-1,1-1,2.6,0,3.5s2.6,1,3.5,0l8.8-8.8l8.8,8.8c1,1,2.6,1,3.5,0s1-2.6,0-3.5L16.6,13z"/>
</svg>
