<?xml version="1.0" encoding="utf-8"?>
<!-- Generator: Adobe Illustrator 18.1.1, SVG Export Plug-In . SVG Version: 6.00 Build 0)  -->
<svg version="1.1" id="Layer_1" xmlns="http://www.w3.org/2000/svg" xmlns:xlink="http://www.w3.org/1999/xlink" x="0px" y="0px"
	 viewBox="6.8 287.6 590.1 216.8" enable-background="new 6.8 287.6 590.1 216.8" xml:space="preserve">
<g id="Background_1">
	<g>
		<rect x="390.1" y="341.3" fill="#FFFFFF" width="74.8" height="163.1"/>
		<rect x="459.7" y="412" fill="#FFFFFF" width="41.7" height="92.4"/>
		<rect x="501.4" y="382.3" fill="#FFFFFF" width="48.5" height="122.1"/>
		<rect x="331.1" y="382.3" fill="#FFFFFF" width="59" height="122.1"/>
		<polygon fill="#FFFFFF" points="277.3,287.6 213.8,299.5 213.8,504.4 277.3,504.4 		"/>
		<rect x="277.3" y="403.4" fill="#FFFFFF" width="53.9" height="101"/>
		<rect x="157.2" y="435.5" fill="#FFFFFF" width="56.5" height="68.9"/>
		<rect x="100.7" y="375.2" fill="#FFFFFF" width="56.5" height="129.2"/>
		<rect x="550" y="443.3" fill="#FFFFFF" width="46.9" height="61"/>
		<rect x="53.8" y="407.2" fill="#FFFFFF" width="46.9" height="97.2"/>
		<rect x="6.8" y="443.3" fill="#FFFFFF" width="46.9" height="61"/>
		<rect x="105.6" y="365.8" fill="#FFFFFF" width="46.7" height="9.4"/>
		<polygon fill="#FFFFFF" points="109.7,365.9 128.9,347.6 148.3,365.9 		"/>
		<rect x="394.6" y="331.9" fill="#FFFFFF" width="65.7" height="9.4"/>
		<path fill="#FFFFFF" d="M449.6,322.4h-44.2c0-12.4,9.9-22.1,22.1-22.1S449.6,310,449.6,322.4z"/>
		<rect x="400.2" y="322.5" fill="#FFFFFF" width="54.6" height="9.4"/>
	</g>
</g>
<g id="Background_2_copy">
</g>
</svg>
