<?xml version="1.0" encoding="utf-8"?>
<!-- Generator: Adobe Illustrator 21.0.2, SVG Export Plug-In . SVG Version: 6.00 Build 0)  -->
<svg version="1.1" id="Layer_1" xmlns="http://www.w3.org/2000/svg" xmlns:xlink="http://www.w3.org/1999/xlink" x="0px" y="0px"
	 viewBox="0 0 587.1 217" style="enable-background:new 0 0 587.1 217;" xml:space="preserve">
<style type="text/css">
	.st0{fill:#2A313A;}
</style>
<path class="st0" d="M541.5,156V94.7H493v29.7h-36.5V53.7h-4.6v-9.4h-5.5v-9.4h-5.2c-0.7-11.7-10.3-20.7-22.1-20.7
	s-21.3,9-22.1,20.7h-5.2v9.4h-5.6v9.4h-4.5v41h-59v21.1h-53.8V0l-63.5,11.9v136h-55.1V87.6h-4.9v-9.4h-4.1L122,60l-19.1,18.2h-4.2
	v9.4h-4.9v32H46.9v36.1H0v61h46.9l45.4,0.1h58h55.1h1.4h62.1h53.8h0.1h58.9h69.6h5.2H493h0h47.1v0.2h46.9v-61H541.5z"/>
<g id="Background_2_copy">
</g>
</svg>
