<?xml version="1.0" encoding="utf-8"?>
<!-- Generator: Adobe Illustrator 18.1.1, SVG Export Plug-In . SVG Version: 6.00 Build 0)  -->
<svg version="1.1" id="Layer_1" xmlns="http://www.w3.org/2000/svg" xmlns:xlink="http://www.w3.org/1999/xlink" x="0px" y="0px"
	 viewBox="0 314.7 611.9 189.7" enable-background="new 0 314.7 611.9 189.7" xml:space="preserve">
<g id="Background_2_copy">
	<polygon fill="#DDDDDD" points="372.7,350.4 372.7,346.7 378.4,346.7 378.4,345.2 375.8,345.2 375.8,336.4 378.4,336.4 
		378.4,334.9 370.1,334.9 370.1,333.3 351.5,333.3 351.5,314.7 349.9,314.7 349.9,333.3 331.3,333.3 331.3,334.9 323.1,334.9 
		323.1,336.4 325.6,336.4 325.6,345.2 323.1,345.2 323.1,346.7 328.7,346.7 328.7,350.4 321.5,350.4 321.5,504.4 379.9,504.4 
		379.9,350.4 	"/>
	<g>
		<path fill="#DDDDDD" d="M480.7,467.2v37.2h13.6c0-0.6,0-0.4,0-0.5c0-12.9,10.4-23.5,23.3-23.5s23.3,10.6,23.3,23.5
			c0,0.1,0-0.2,0,0.4H553c0-0.6,0-0.4,0-0.5c0-12.9,10.4-23.5,23.3-23.5s23.3,10.6,23.3,23.5c0,0.1,0-0.2,0,0.4h12.3v-37.2H480.7z"
			/>
	</g>
	<polygon fill="#DDDDDD" points="198.5,415.5 198.5,403.9 185.3,389.1 174.7,389.1 174.7,386 172.6,386 172.6,370 171.1,370 
		171.1,347.3 170.1,347.3 170.1,370 168.5,370 168.5,386 166.4,386 166.4,389.1 155.9,389.1 142.7,403.9 142.7,415.5 138,415.5 
		138,504.4 203.1,504.4 203.1,415.5 	"/>
	<path fill="#DDDDDD" d="M448.7,443.4v-7.8h0.5c4.3,0,7.8-3.5,7.8-7.8v-37.2c0-4.3-3.5-7.8-7.8-7.8H412c-4.3,0-7.8,3.5-7.8,7.8v37.2
		c0,4.3,3.5,7.8,7.8,7.8h0.5v7.8h-21.2v3.6h2.6v57.4h73.4V447h2.6v-3.6H448.7z M445.6,443.4h-14v-7.8h14V443.4z M430.6,394.9
		l14.6,25.3H416L430.6,394.9z M415.6,435.6H429v7.8h-13.4V435.6z"/>
	<g>
		<path fill="#DDDDDD" d="M262.4,444.5c-8,0-14.4,6.2-14.4,14.4h28.8C276.7,450.6,270.3,444.5,262.4,444.5z"/>
		<polygon fill="#DDDDDD" points="276.7,458.9 248,458.9 216.1,458.9 216.1,504.4 248,504.4 276.7,504.4 309.1,504.4 309.1,458.9 		
			"/>
	</g>
	<g>
		<g>
			<rect y="477" fill="#DDDDDD" width="161.3" height="2.1"/>
		</g>
		<g>
			<rect x="78.4" y="378.1" fill="#DDDDDD" width="7" height="126.3"/>
		</g>
		<g>
			
				<rect x="61" y="430.1" transform="matrix(-0.5829 -0.8125 0.8125 -0.5829 -163.4486 777.9467)" fill="#DDDDDD" width="114" height="1.6"/>
		</g>
		<g>
			
				<rect x="58.2" y="432.8" transform="matrix(-0.4636 -0.8861 0.8861 -0.4636 -226.6525 729.8358)" fill="#DDDDDD" width="98.7" height="1.6"/>
		</g>
		<g>
			
				<rect x="56.1" y="435.9" transform="matrix(-0.3348 -0.9423 0.9423 -0.3348 -279.1307 676.2906)" fill="#DDDDDD" width="86.1" height="1.6"/>
		</g>
		<g>
			
				<rect x="54.5" y="439.5" transform="matrix(-0.1989 -0.98 0.98 -0.1989 -320.9785 618.2484)" fill="#DDDDDD" width="75.4" height="1.6"/>
		</g>
		<g>
			<polygon fill="#DDDDDD" points="81.9,373.6 78.4,378.1 85.4,378.1 			"/>
		</g>
		<g>
			
				<rect x="45.3" y="374" transform="matrix(-0.8126 -0.5828 0.5828 -0.8126 -167.6248 808.0353)" fill="#DDDDDD" width="1.6" height="114"/>
		</g>
		<g>
			
				<rect x="55.7" y="384.1" transform="matrix(-0.8861 -0.4635 0.4635 -0.8861 -94.4218 843.7682)" fill="#DDDDDD" width="1.6" height="98.7"/>
		</g>
		<g>
			
				<rect x="64.1" y="393.7" transform="matrix(-0.9424 -0.3346 0.3346 -0.9424 -20.013 869.9824)" fill="#DDDDDD" width="1.6" height="86.1"/>
		</g>
		<g>
			
				<rect x="71" y="402.7" transform="matrix(-0.98 -0.1992 0.1992 -0.98 54.4302 886.1778)" fill="#DDDDDD" width="1.6" height="75.4"/>
		</g>
	</g>
</g>
</svg>
