<?xml version="1.0" encoding="utf-8"?>
<!-- Generator: Adobe Illustrator 21.0.2, SVG Export Plug-In . SVG Version: 6.00 Build 0)  -->
<svg version="1.1" id="Layer_1" xmlns="http://www.w3.org/2000/svg" xmlns:xlink="http://www.w3.org/1999/xlink" x="0px" y="0px"
	 viewBox="0 0 611.9 189.7" style="enable-background:new 0 0 611.9 189.7;" xml:space="preserve">
<style type="text/css">
	.st0{fill:#37404C;}
</style>
<g id="Background_2_copy">
	<polygon class="st0" points="372.7,35.7 372.7,32 378.4,32 378.4,30.5 375.8,30.5 375.8,21.7 378.4,21.7 378.4,20.2 370.1,20.2 
		370.1,18.6 351.5,18.6 351.5,0 349.9,0 349.9,18.6 331.3,18.6 331.3,20.2 323.1,20.2 323.1,21.7 325.6,21.7 325.6,30.5 323.1,30.5 
		323.1,32 328.7,32 328.7,35.7 321.5,35.7 321.5,189.7 379.9,189.7 379.9,35.7 	"/>
	<g>
		<path class="st0" d="M480.7,152.5v37.2h13.6c0-0.6,0-0.4,0-0.5c0-12.9,10.4-23.5,23.3-23.5s23.3,10.6,23.3,23.5c0,0.1,0-0.2,0,0.4
			H553c0-0.6,0-0.4,0-0.5c0-12.9,10.4-23.5,23.3-23.5s23.3,10.6,23.3,23.5c0,0.1,0-0.2,0,0.4h12.3v-37.2H480.7V152.5z"/>
	</g>
	<polygon class="st0" points="198.5,100.8 198.5,89.2 185.3,74.4 174.7,74.4 174.7,71.3 172.6,71.3 172.6,55.3 171.1,55.3 
		171.1,32.6 170.1,32.6 170.1,55.3 168.5,55.3 168.5,71.3 166.4,71.3 166.4,74.4 155.9,74.4 142.7,89.2 142.7,100.8 138,100.8 
		138,189.7 203.1,189.7 203.1,100.8 	"/>
	<path class="st0" d="M448.7,128.7v-7.8h0.5c4.3,0,7.8-3.5,7.8-7.8V75.9c0-4.3-3.5-7.8-7.8-7.8H412c-4.3,0-7.8,3.5-7.8,7.8v37.2
		c0,4.3,3.5,7.8,7.8,7.8h0.5v7.8h-21.2v3.6h2.6v57.4h73.4v-57.4h2.6v-3.6H448.7z M445.6,128.7h-14v-7.8h14V128.7z M430.6,80.2
		l14.6,25.3H416L430.6,80.2z M415.6,120.9H429v7.8h-13.4V120.9z"/>
	<g>
		<path class="st0" d="M262.4,129.8c-8,0-14.4,6.2-14.4,14.4h28.8C276.7,135.9,270.3,129.8,262.4,129.8z"/>
		<polygon class="st0" points="276.7,144.2 248,144.2 216.1,144.2 216.1,189.7 248,189.7 276.7,189.7 309.1,189.7 309.1,144.2 		"/>
	</g>
	<g>
		<g>
			<rect y="162.3" class="st0" width="161.3" height="2.1"/>
		</g>
		<g>
			<rect x="78.4" y="63.4" class="st0" width="7" height="126.3"/>
		</g>
		<g>
			
				<rect x="117.1" y="59.2" transform="matrix(0.8125 -0.5829 0.5829 0.8125 -45.6372 90.4962)" class="st0" width="1.6" height="114"/>
		</g>
		<g>
			
				<rect x="106.9" y="69.5" transform="matrix(0.8861 -0.4636 0.4636 0.8861 -42.8099 63.466)" class="st0" width="1.6" height="98.7"/>
		</g>
		<g>
			
				<rect x="98.4" y="78.9" transform="matrix(0.9423 -0.3348 0.3348 0.9423 -35.1065 40.2418)" class="st0" width="1.6" height="86.1"/>
		</g>
		<g>
			<rect x="91.4" y="87.9" transform="matrix(0.98 -0.1989 0.1989 0.98 -23.1439 20.8443)" class="st0" width="1.6" height="75.4"/>
		</g>
		<g>
			<polygon class="st0" points="81.9,58.9 78.4,63.4 85.4,63.4 			"/>
		</g>
		<g>
			
				<rect x="-10.9" y="115.4" transform="matrix(0.5828 -0.8126 0.8126 0.5828 -75.2228 85.9557)" class="st0" width="114" height="1.6"/>
		</g>
		<g>
			
				<rect x="7.1" y="118" transform="matrix(0.4635 -0.8861 0.8861 0.4635 -75.0006 113.7281)" class="st0" width="98.7" height="1.6"/>
		</g>
		<g>
			
				<rect x="21.9" y="121.2" transform="matrix(0.3346 -0.9424 0.9424 0.3346 -71.7173 142.3805)" class="st0" width="86.1" height="1.6"/>
		</g>
		<g>
			
				<rect x="34.1" y="124.8" transform="matrix(0.1992 -0.98 0.98 0.1992 -65.5735 170.9232)" class="st0" width="75.4" height="1.6"/>
		</g>
	</g>
</g>
</svg>
